<svg xmlns="http://www.w3.org/2000/svg" version="1.1" xmlns:xlink="http://www.w3.org/1999/xlink" xmlns:svgjs="http://svgjs.dev/svgjs" width="1000" height="1000" viewBox="0 0 1000 1000"><rect width="1000" height="1000" fill="#000000"></rect><g transform="matrix(0.7,0,0,0.7,149.57575757575756,414.8558453619689)"><svg viewBox="0 0 396 97" data-background-color="#ffffff" preserveAspectRatio="xMidYMid meet" height="244" width="1000" xmlns="http://www.w3.org/2000/svg" xmlns:xlink="http://www.w3.org/1999/xlink"><g id="tight-bounds" transform="matrix(1,0,0,1,0.2400000000000091,-0.1452985954975361)"><svg viewBox="0 0 395.52 97.2905971909951" height="97.2905971909951" width="395.52"><g><svg viewBox="0 0 590.598470881848 145.27628927028601" height="97.2905971909951" width="395.52"><g transform="matrix(1,0,0,1,195.0784708818481,44.89248205487448)"><svg viewBox="0 0 395.52 55.49132516053706" height="55.49132516053706" width="395.52"><g><svg viewBox="0 0 395.52 55.49132516053706" height="55.49132516053706" width="395.52"><g><svg viewBox="0 0 395.52 55.49132516053706" height="55.49132516053706" width="395.52"><g transform="matrix(1,0,0,1,0,0)"><svg width="395.52" viewBox="1.65 -35.65 256.93 36.05" height="55.49132516053706" data-palette-color="#6f605b"><path d="M39.25-5.75L49.35-35.25 53.35-35.25 41.05 0 37.55 0 27.5-28.85 17.45 0 14 0 1.65-35.25 5.8-35.25 15.8-5.8 26.05-35.25 29.15-35.2 39.25-5.75ZM63.5 0L59.4 0 59.4-35.25 63.5-35.25 63.5 0ZM83.4 0.4Q75.15 0.4 70.2-4.05L70.2-4.05 71.8-7.2Q74.4-5 77.12-4.05 79.85-3.1 83.45-3.1L83.45-3.1Q87.7-3.1 90-4.75 92.3-6.4 92.3-9.4L92.3-9.4Q92.3-11.15 91.2-12.25 90.1-13.35 88.3-14 86.5-14.65 83.45-15.35L83.45-15.35Q79.35-16.3 76.72-17.35 74.1-18.4 72.47-20.35 70.85-22.3 70.85-25.45L70.85-25.45Q70.85-28.45 72.42-30.78 74-33.1 76.92-34.38 79.85-35.65 83.7-35.65L83.7-35.65Q87.35-35.65 90.52-34.5 93.7-33.35 95.9-31.2L95.9-31.2 94.35-28.05Q91.85-30.2 89.27-31.18 86.7-32.15 83.7-32.15L83.7-32.15Q79.6-32.15 77.27-30.43 74.95-28.7 74.95-25.6L74.95-25.6Q74.95-22.95 77-21.6 79.05-20.25 83.2-19.3L83.2-19.3Q87.75-18.2 90.35-17.28 92.95-16.35 94.67-14.5 96.4-12.65 96.4-9.55L96.4-9.55Q96.4-6.55 94.82-4.3 93.25-2.05 90.3-0.83 87.35 0.4 83.4 0.4L83.4 0.4ZM125.34 0L103.04 0 103.04-35.25 125.34-35.25 125.34-31.85 107.09-31.85 107.09-19.6 124.34-19.6 124.34-16.2 107.09-16.2 107.09-3.4 125.34-3.4 125.34 0ZM157.69 0L153.54 0 153.54-31.75 141.29-31.75 141.29-35.25 169.99-35.25 169.99-31.75 157.69-31.75 157.69 0ZM197.24 0L174.94 0 174.94-35.25 197.24-35.25 197.24-31.85 178.99-31.85 178.99-19.6 196.24-19.6 196.24-16.2 178.99-16.2 178.99-3.4 197.24-3.4 197.24 0ZM214.73 0.4Q206.48 0.4 201.53-4.05L201.53-4.05 203.13-7.2Q205.73-5 208.46-4.05 211.18-3.1 214.78-3.1L214.78-3.1Q219.03-3.1 221.33-4.75 223.63-6.4 223.63-9.4L223.63-9.4Q223.63-11.15 222.53-12.25 221.43-13.35 219.63-14 217.83-14.65 214.78-15.35L214.78-15.35Q210.68-16.3 208.06-17.35 205.43-18.4 203.81-20.35 202.18-22.3 202.18-25.45L202.18-25.45Q202.18-28.45 203.76-30.78 205.33-33.1 208.26-34.38 211.18-35.65 215.03-35.65L215.03-35.65Q218.68-35.65 221.86-34.5 225.03-33.35 227.23-31.2L227.23-31.2 225.68-28.05Q223.18-30.2 220.61-31.18 218.03-32.15 215.03-32.15L215.03-32.15Q210.93-32.15 208.61-30.43 206.28-28.7 206.28-25.6L206.28-25.6Q206.28-22.95 208.33-21.6 210.38-20.25 214.53-19.3L214.53-19.3Q219.08-18.2 221.68-17.28 224.28-16.35 226.01-14.5 227.73-12.65 227.73-9.55L227.73-9.55Q227.73-6.55 226.16-4.3 224.58-2.05 221.63-0.83 218.68 0.4 214.73 0.4L214.73 0.4ZM246.28 0L242.13 0 242.13-31.75 229.88-31.75 229.88-35.25 258.58-35.25 258.58-31.75 246.28-31.75 246.28 0Z" opacity="1" transform="matrix(1,0,0,1,0,0)" fill="#ffffff" class="undefined-text-0" data-fill-palette-color="primary" id="text-0"></path></svg></g></svg></g></svg></g></svg></g><g><svg viewBox="0 0 181.97830080324914 145.27628927028601" height="145.27628927028601" width="181.97830080324914"><g><svg xmlns="http://www.w3.org/2000/svg" xmlns:xlink="http://www.w3.org/1999/xlink" version="1.1" x="0" y="0" viewBox="9.293000000000006 17.376999999999995 84.707 67.623" enable-background="new 0 0 100 100" xml:space="preserve" height="145.27628927028601" width="181.97830080324914" class="icon-icon-0" data-fill-palette-color="accent" id="icon-0"><g fill="#f36527" data-fill-palette-color="accent"><g fill="#f36527" data-fill-palette-color="accent"><path d="M30.881 45.81c2.854-0.967 4.372-4.062 3.408-6.915-0.969-2.848-4.055-4.369-6.908-3.402-2.848 0.969-4.369 4.062-3.4 6.909C24.948 45.248 28.035 46.771 30.881 45.81z" fill="#ffffff" data-fill-palette-color="accent"></path><path d="M34.711 56.014c-0.961 0.998-0.932 2.584 0.064 3.547 0.998 0.949 2.584 0.918 3.545-0.076 0.963-0.996 0.924-2.582-0.072-3.542C37.254 54.989 35.664 55.012 34.711 56.014z" fill="#ffffff" data-fill-palette-color="accent"></path><path d="M24.391 64.174c-1.118 1.158-1.072 2.994 0.077 4.107 1.157 1.098 2.991 1.062 4.103-0.086 1.103-1.16 1.064-2.994-0.087-4.102C27.33 62.988 25.494 63.016 24.391 64.174z" fill="#ffffff" data-fill-palette-color="accent"></path><path d="M92.268 48.006c0.255-1.134 0.838-2.189 1.732-3.143-1.528-1.238-2.496-2.62-2.949-4.191-0.414-1.451-0.376-2.951 0.139-4.609-1.798-0.307-3.165-1.055-4.156-2.265-0.556-0.663-0.958-1.463-1.216-2.372-0.889 0.312-1.737 0.458-2.59 0.436-1.682-0.036-3.216-0.722-4.584-2.03-0.12 0.182-0.258 0.357-0.396 0.531-0.129 0.168-0.275 0.334-0.423 0.501l-0.122 0.14c-0.479 0.501-0.991 0.916-1.547 1.288-0.253 0.16-0.514 0.292-0.771 0.423-0.321 0.152-0.634 0.276-0.961 0.37-0.807 0.251-1.673 0.349-2.59 0.314-0.597-0.028-1.216-0.116-1.85-0.268-0.132 1.338-0.554 2.482-1.281 3.434-0.807 1.032-1.927 1.762-3.349 2.184 0.474 1.266 0.627 2.498 0.457 3.713-0.203 1.382-0.799 2.666-1.83 3.879 1.105 0.846 1.89 1.835 2.37 2.984 0.531 1.273 0.66 2.692 0.379 4.279 2.643 0.459 4.545 1.908 5.694 4.326 0.581-0.205 1.172-0.299 1.769-0.291 0.706 0.014 1.367 0.175 2.002 0.474 0.706 0.326 1.367 0.843 1.979 1.528 1.507-1.268 3.227-1.887 5.11-1.85 0.45 0.007 0.822 0.043 1.181 0.119 0.267 0.035 0.573 0.098 0.881 0.186 0.174 0.039 0.392 0.102 0.604 0.168l0.114 0.036c0.081 0.03 0.16 0.058 0.241 0.088 1.116-2.985 3.159-4.958 6.406-6.195C92.109 50.737 91.954 49.332 92.268 48.006z" fill="#ffffff" data-fill-palette-color="accent"></path><path d="M72.522 61.154l-1.676 1.236-0.59-1.994c-0.802-2.73-2.421-3.968-5.233-4.033l-2.128-0.014 0.626-1.9c0.537-1.637 0.589-2.948 0.136-4.004-0.422-1.011-1.266-1.819-2.655-2.545l-1.899-0.993 1.618-1.405c1.314-1.141 2.037-2.269 2.211-3.444 0.153-1.119-0.152-2.283-0.968-3.644l-1.191-1.987 2.306-0.212c1.593-0.138 2.68-0.611 3.323-1.428 0.61-0.8 0.826-1.956 0.656-3.531l-0.261-2.452 2.269 0.954c0.09 0.035 0.172 0.066 0.25 0.101-6.202-7.613-15.65-12.482-26.211-12.482-18.644 0-33.812 15.17-33.812 33.812C9.293 69.83 24.461 85 43.104 85c15.213 0 28.111-10.104 32.331-23.955-0.615-0.48-1.089-0.488-1.302-0.494C73.618 60.545 73.07 60.748 72.522 61.154zM18.172 45.103l-0.445-1.304 2.215-1.048c-0.233-0.997-0.293-2.001-0.197-2.976l-2.338-0.752 0.27-1.352 2.447 0.203c0.293-0.962 0.741-1.863 1.318-2.68l-1.646-1.821 0.91-1.032 2.014 1.396c0.723-0.667 1.545-1.229 2.477-1.66l-0.516-2.394 1.309-0.443 1.041 2.212c0.998-0.226 2.003-0.284 2.986-0.198l0.744-2.329 1.352 0.269-0.195 2.44c0.952 0.298 1.854 0.741 2.67 1.323l1.82-1.649 1.034 0.908-1.397 2.017c0.671 0.719 1.234 1.551 1.658 2.483l2.397-0.52 0.442 1.304-2.212 1.048c0.23 1 0.283 2.001 0.196 2.979l2.33 0.749-0.27 1.354-2.438-0.202c-0.301 0.955-0.745 1.862-1.317 2.677l1.644 1.813-0.912 1.035-2.016-1.392c-0.719 0.671-1.55 1.23-2.482 1.66l0.517 2.395-1.303 0.443-1.048-2.212c-0.996 0.228-2.001 0.286-2.971 0.19l-0.75 2.336-1.356-0.27 0.202-2.44c-0.958-0.298-1.857-0.741-2.672-1.323l-1.823 1.645-1.032-0.904 1.391-2.015c-0.67-0.721-1.229-1.552-1.658-2.483L18.172 45.103zM32.077 68.006l-1.525-0.176c-0.134 0.32-0.296 0.633-0.511 0.916l0.963 1.195-0.59 0.617-1.229-0.912c-0.287 0.219-0.583 0.404-0.903 0.541l0.241 1.521-0.824 0.232-0.611-1.406c-0.348 0.055-0.699 0.055-1.048 0.023l-0.554 1.428-0.83-0.205 0.177-1.525c-0.328-0.125-0.636-0.295-0.916-0.504l-1.198 0.959-0.617-0.588 0.91-1.24c-0.218-0.273-0.398-0.574-0.544-0.889L20.96 68.23l-0.241-0.826 1.406-0.609c-0.053-0.35-0.057-0.697-0.023-1.047l-1.424-0.555 0.203-0.83 1.52 0.174c0.131-0.318 0.297-0.625 0.503-0.916l-0.952-1.191 0.587-0.615 1.229 0.906c0.279-0.221 0.584-0.402 0.906-0.547l-0.24-1.506 0.819-0.242 0.612 1.404c0.349-0.043 0.699-0.059 1.047-0.02l0.556-1.42 0.832 0.197-0.178 1.521c0.321 0.131 0.633 0.299 0.918 0.5l1.194-0.959 0.614 0.605-0.906 1.219c0.219 0.287 0.399 0.586 0.539 0.902l1.515-0.236 0.24 0.82-1.406 0.611c0.046 0.35 0.061 0.701 0.019 1.049l1.43 0.551L32.077 68.006zM43.475 60.01l-1.891-0.217c-0.162 0.4-0.375 0.787-0.628 1.145l1.188 1.477-0.738 0.773-1.526-1.129c-0.351 0.275-0.722 0.492-1.116 0.67l0.292 1.883-1.024 0.291-0.76-1.746c-0.428 0.064-0.865 0.07-1.302 0.031l-0.685 1.773-1.035-0.254 0.219-1.895c-0.402-0.16-0.787-0.371-1.141-0.623l-1.486 1.191-0.764-0.742 1.127-1.527c-0.269-0.35-0.494-0.721-0.674-1.115l-1.881 0.293-0.297-1.027 1.754-0.758c-0.068-0.431-0.073-0.859-0.029-1.297l-1.774-0.683 0.251-1.038 1.893 0.217c0.154-0.402 0.367-0.78 0.63-1.146l-1.196-1.481 0.741-0.768 1.529 1.128c0.347-0.269 0.72-0.496 1.116-0.669l-0.291-1.876 1.021-0.298 0.761 1.737c0.43-0.057 0.858-0.064 1.297-0.021l0.691-1.769 1.034 0.256L38.56 52.68c0.403 0.162 0.78 0.365 1.143 0.625l1.479-1.19 0.771 0.741-1.137 1.527c0.281 0.351 0.505 0.722 0.68 1.114l1.876-0.29 0.3 1.02-1.748 0.764c0.064 0.43 0.07 0.867 0.029 1.296l1.768 0.69L43.475 60.01zM52.674 53.592l-2.255-0.352 2.591-5.015-9.905 3.364 0.498-2.548 9.247-2.605-4.361-2.42 0.438-2.052 7.512 3.546L52.674 53.592z" fill="#ffffff" data-fill-palette-color="accent"></path></g></g></svg><g></g></g></svg></g></svg></g><defs></defs></svg><rect width="395.52" height="97.2905971909951" fill="none" stroke="none" visibility="hidden"></rect></g></svg></g></svg>